<svg width="192" height="41" viewBox="0 0 192 41" fill="none" xmlns="http://www.w3.org/2000/svg">
<rect x="0.5" y="0.5" width="40" height="40" fill="#E63946" stroke="black"/>
<path d="M61.55 14C61.0667 14 60.575 14.0917 60.075 14.275C60.775 14.875 61.125 15.6167 61.125 16.5C61.125 17.3667 60.8667 18.15 60.35 18.85C59.85 19.55 59.225 19.9 58.475 19.9C57.725 19.9 57.125 19.6667 56.675 19.2C56.2417 18.7333 56.025 18.1167 56.025 17.35C56.025 16.5833 56.2583 15.8667 56.725 15.2C56.1083 15.3667 55.6 15.7583 55.2 16.375C54.8 16.975 54.6 17.7333 54.6 18.65C54.6 19.5667 54.7333 20.3417 55 20.975C55.5833 20.8917 56.1917 20.85 56.825 20.85C57.475 20.85 58.0667 21.0167 58.6 21.35C59.15 21.6667 59.425 22.1167 59.425 22.7C59.425 23.2833 59.1833 23.7833 58.7 24.2C58.2167 24.6 57.575 24.8 56.775 24.8C55.975 24.8 55.0333 24.4833 53.95 23.85C53.3833 24.6 53.1 25.3667 53.1 26.15C53.1 26.9167 53.325 27.5167 53.775 27.95C54.225 28.3833 54.8167 28.6 55.55 28.6C57.0667 28.6 58.5417 27.8167 59.975 26.25L61.05 27.15C60.7167 27.6833 60.275 28.2167 59.725 28.75C59.1917 29.2833 58.675 29.7167 58.175 30.05C57.675 30.3833 57.0333 30.675 56.25 30.925C55.4833 31.175 54.6917 31.3 53.875 31.3C52.325 31.3 51.0083 30.9167 49.925 30.15C48.8417 29.3667 48.3 28.1667 48.3 26.55C48.3 25.6 48.6083 24.7417 49.225 23.975C49.8583 23.1917 50.6917 22.5417 51.725 22.025C50.8083 20.975 50.35 19.8 50.35 18.5C50.35 16.85 50.9917 15.5667 52.275 14.65C53.5583 13.7167 55.0417 13.25 56.725 13.25C57.3583 13.25 57.9333 13.325 58.45 13.475C59.6 12.7083 60.825 12.325 62.125 12.325C63.4417 12.325 64.3833 12.6667 64.95 13.35C64.9167 13.9333 64.7333 14.4167 64.4 14.8L64.225 15C63.6083 14.3333 62.7167 14 61.55 14ZM59.15 16.9C59.15 16.1667 58.9 15.65 58.4 15.35C57.9167 15.9167 57.675 16.55 57.675 17.25C57.675 17.9333 57.9 18.275 58.35 18.275C58.5833 18.275 58.775 18.15 58.925 17.9C59.075 17.6333 59.15 17.3 59.15 16.9ZM56.875 22.175C56.5417 22.175 56.2 22.2417 55.85 22.375C56.2167 22.875 56.6417 23.125 57.125 23.125C57.6083 23.125 57.85 22.975 57.85 22.675C57.85 22.3417 57.525 22.175 56.875 22.175ZM62.3137 31.15H61.8887C61.8887 30.1167 62.122 28.55 62.5887 26.45C63.072 24.35 63.3137 23.1417 63.3137 22.825C63.3137 22.5083 63.2387 22.2 63.0887 21.9C62.9387 21.6 62.7887 21.375 62.6387 21.225L62.4137 21L62.4637 20.625C63.447 20.3083 65.1637 20.15 67.6137 20.15C67.7803 20.5333 67.897 20.9333 67.9637 21.35C69.4803 20.4167 70.7553 19.95 71.7887 19.95C72.4887 19.95 73.0387 20.1833 73.4387 20.65C73.8387 21.1 74.0387 21.65 74.0387 22.3C74.0387 22.9333 73.8553 23.9583 73.4887 25.375C73.122 26.7917 72.9387 27.7167 72.9387 28.15C72.9387 28.5667 72.997 28.775 73.1137 28.775L74.4387 28.425L74.8887 29.675C74.3553 30.075 73.6553 30.45 72.7887 30.8C71.9387 31.1333 71.1553 31.3 70.4387 31.3C69.022 31.3 68.3137 30.5667 68.3137 29.1C68.3137 28.4667 68.4887 27.4333 68.8387 26C69.1887 24.5667 69.3637 23.675 69.3637 23.325C69.3637 22.9583 69.247 22.775 69.0137 22.775C68.7137 22.775 68.3137 22.9417 67.8137 23.275C67.747 23.575 67.5803 24.3 67.3137 25.45C66.7803 27.8667 66.5137 29.6083 66.5137 30.675C65.697 30.9917 64.297 31.15 62.3137 31.15ZM79.5564 31.3C78.2564 31.3 77.2314 30.8917 76.4814 30.075C75.7314 29.2417 75.3564 28.075 75.3564 26.575C75.3564 24.7417 75.8981 23.1917 76.9814 21.925C78.0648 20.6417 79.4898 20 81.2564 20L82.3814 20.1C82.7814 19.9833 83.1564 19.925 83.5064 19.925C84.3398 19.925 84.9314 20.2083 85.2814 20.775C85.6481 21.3417 85.8564 22.15 85.9064 23.2C86.6064 23.1667 87.2731 23.0583 87.9064 22.875L88.2564 22.775C88.3731 22.8917 88.4564 23.2417 88.5064 23.825L88.5314 24.1C87.7814 24.4833 86.8648 24.7833 85.7814 25C85.4148 26.7667 84.6898 28.2583 83.6064 29.475C82.5231 30.6917 81.1731 31.3 79.5564 31.3ZM80.0564 26.475C80.0564 28.025 80.4481 28.8 81.2314 28.8C81.7814 28.8 82.3398 28.45 82.9064 27.75C83.4898 27.05 83.8898 26.2 84.1064 25.2C82.4064 25.2 81.5564 24.3833 81.5564 22.75C81.5564 22.4667 81.5814 22.175 81.6314 21.875C81.4648 21.875 81.3398 21.9 81.2564 21.95C80.9731 22.25 80.6981 22.8583 80.4314 23.775C80.1814 24.675 80.0564 25.575 80.0564 26.475ZM93.3078 21.6C92.7911 21.6 92.3495 22.0583 91.9828 22.975C91.6161 23.8917 91.4328 24.8167 91.4328 25.75C91.4328 27.8 92.0245 28.825 93.2078 28.825C93.9578 28.825 94.8078 28.4667 95.7578 27.75L96.5578 28.85C95.8578 29.6167 95.0161 30.2167 94.0328 30.65C93.0661 31.0833 92.0995 31.3 91.1328 31.3C89.8328 31.3 88.7745 30.9083 87.9578 30.125C87.1578 29.325 86.7578 28.125 86.7578 26.525C86.7578 24.5917 87.3495 23.0083 88.5328 21.775C89.7328 20.5417 91.2995 19.925 93.2328 19.925C94.4828 19.925 95.4661 20.1833 96.1828 20.7C96.8995 21.2 97.2578 21.8417 97.2578 22.625C97.2578 23.3917 97.0245 24.0583 96.5578 24.625C96.0078 24.625 95.4078 24.525 94.7578 24.325C94.1245 24.1083 93.6161 23.8417 93.2328 23.525L93.6078 21.65C93.5078 21.6167 93.4078 21.6 93.3078 21.6ZM100.429 14.475C100.429 14.0417 100.387 13.6583 100.304 13.325C101.954 12.875 103.454 12.65 104.804 12.65C104.97 12.85 105.054 13.2917 105.054 13.975C105.054 15.1917 104.679 17.525 103.929 20.975C105.262 20.275 106.437 19.925 107.454 19.925C108.487 19.925 109.27 20.1333 109.804 20.55C110.354 20.9667 110.629 21.55 110.629 22.3C110.629 23.75 109.554 24.7833 107.404 25.4C107.937 27.7 108.454 28.85 108.954 28.85L110.154 28.525L110.704 29.75C110.287 30.0833 109.645 30.425 108.779 30.775C107.912 31.125 107.079 31.3 106.279 31.3C105.479 31.3 104.87 31 104.454 30.4C104.037 29.8 103.77 29.0167 103.654 28.05C103.537 27.0833 103.479 26 103.479 24.8C104.279 24.6 104.912 24.3167 105.379 23.95C105.845 23.5667 106.079 23.1917 106.079 22.825C106.079 22.4417 105.879 22.25 105.479 22.25C105.162 22.25 104.787 22.3417 104.354 22.525C103.937 22.7083 103.629 22.8833 103.429 23.05C102.529 26.85 102.079 29.3917 102.079 30.675C100.795 30.9583 99.2702 31.1 97.5035 31.1C97.4868 30.9667 97.4785 30.8083 97.4785 30.625C97.4785 29.7583 97.9702 27.225 98.9535 23.025C99.9368 18.8083 100.429 15.9583 100.429 14.475ZM137.411 19.075C137.411 17.4417 136.702 15.9167 135.286 14.5C135.652 13.7833 136.127 13.1333 136.711 12.55C137.311 11.9667 137.811 11.5667 138.211 11.35L138.811 11C139.561 11 140.202 11.4333 140.736 12.3C141.286 13.15 141.561 14.1083 141.561 15.175C141.561 17.0583 141.011 19.275 139.911 21.825C138.811 24.3583 137.419 26.575 135.736 28.475C134.069 30.3583 132.519 31.3 131.086 31.3C129.286 31.3 128.261 30.4583 128.011 28.775C127.311 29.5583 126.561 30.175 125.761 30.625C124.961 31.075 124.144 31.3 123.311 31.3C122.477 31.3 121.769 31.0167 121.186 30.45C120.619 29.8667 120.336 28.9417 120.336 27.675C120.336 26.7917 120.377 25.4333 120.461 23.6C118.894 23.5167 117.602 22.9917 116.586 22.025C115.569 21.0583 115.061 19.9833 115.061 18.8C115.061 17.2333 115.769 15.9167 117.186 14.85C118.602 13.7833 120.111 13.25 121.711 13.25C122.844 13.25 123.769 13.6167 124.486 14.35C125.219 15.0667 125.586 16.1833 125.586 17.7C125.586 18.65 125.527 20.0417 125.411 21.875C125.294 23.7083 125.236 25.1833 125.236 26.3C125.236 27.4167 125.394 27.975 125.711 27.975C125.961 27.975 126.311 27.775 126.761 27.375C127.227 26.9583 127.636 26.4917 127.986 25.975C128.019 25.4917 128.094 24.7417 128.211 23.725C128.461 21.5417 128.586 19.6583 128.586 18.075C128.586 16.4917 128.402 15.2333 128.036 14.3C130.002 13.65 131.761 13.3167 133.311 13.3C133.494 13.95 133.586 14.9917 133.586 16.425C133.586 17.8417 133.461 19.6833 133.211 21.95C132.961 24.2167 132.836 25.8 132.836 26.7C132.836 27.5833 132.961 28.025 133.211 28.025C133.461 28.025 133.794 27.7583 134.211 27.225C134.644 26.675 135.077 25.9917 135.511 25.175C135.944 24.3417 136.344 23.375 136.711 22.275C137.077 21.1583 137.311 20.0917 137.411 19.075ZM120.561 21.6C120.644 20.7667 120.686 19.8833 120.686 18.95C120.686 18 120.611 17.2083 120.461 16.575C120.311 15.9417 119.977 15.625 119.461 15.625C118.961 15.625 118.436 15.95 117.886 16.6C117.352 17.2333 117.086 17.975 117.086 18.825C117.086 19.6583 117.427 20.3333 118.111 20.85C118.794 21.35 119.611 21.6 120.561 21.6ZM153.383 20.875C153.033 21.9583 152.733 23.25 152.483 24.75C152.233 26.2333 152.108 27.275 152.108 27.875C152.108 28.4583 152.199 28.75 152.383 28.75L153.633 28.4L154.083 29.65C153.549 30.0667 152.866 30.45 152.033 30.8C151.216 31.1333 150.491 31.3 149.858 31.3C148.774 31.3 148.091 30.8333 147.808 29.9C146.491 30.8333 145.324 31.3 144.308 31.3C143.308 31.3 142.533 30.9333 141.983 30.2C141.433 29.4667 141.158 28.4167 141.158 27.05C141.158 25.1667 141.641 23.5083 142.608 22.075C143.574 20.6417 144.849 19.925 146.433 19.925C147.299 19.925 148.183 20.1667 149.083 20.65C149.216 20.35 149.324 20.1333 149.408 20C150.608 20 151.933 20.2917 153.383 20.875ZM145.858 26.75C145.858 27.5833 145.916 28.1083 146.033 28.325C146.149 28.5417 146.366 28.65 146.683 28.65C146.999 28.65 147.308 28.525 147.608 28.275C147.674 26.3417 147.991 24.3167 148.558 22.2C148.308 22.05 148.016 21.975 147.683 21.975C147.366 21.975 147.074 22.1583 146.808 22.525C146.558 22.8917 146.366 23.35 146.233 23.9C145.983 24.95 145.858 25.9 145.858 26.75ZM161.214 29.6C160.681 30.0667 159.981 30.4667 159.114 30.8C158.247 31.1333 157.456 31.3 156.739 31.3C156.039 31.3 155.464 31.1 155.014 30.7C154.564 30.2833 154.339 29.6917 154.339 28.925C154.339 28.1583 154.756 26.025 155.589 22.525C156.439 19.0083 156.864 16.4 156.864 14.7C156.864 14.3333 156.814 13.8667 156.714 13.3C158.281 12.8667 159.797 12.65 161.264 12.65C161.414 12.9167 161.489 13.35 161.489 13.95C161.489 15.0833 161.064 17.5583 160.214 21.375C159.381 25.175 158.964 27.3667 158.964 27.95C158.964 28.5333 159.064 28.825 159.264 28.825C159.431 28.825 159.789 28.7167 160.339 28.5L160.614 28.375L161.214 29.6ZM174.086 20.875C173.736 21.9583 173.436 23.25 173.186 24.75C172.936 26.2333 172.811 27.275 172.811 27.875C172.811 28.4583 172.902 28.75 173.086 28.75L174.336 28.4L174.786 29.65C174.252 30.0667 173.569 30.45 172.736 30.8C171.919 31.1333 171.194 31.3 170.561 31.3C169.477 31.3 168.794 30.8333 168.511 29.9C167.194 30.8333 166.027 31.3 165.011 31.3C164.011 31.3 163.236 30.9333 162.686 30.2C162.136 29.4667 161.861 28.4167 161.861 27.05C161.861 25.1667 162.344 23.5083 163.311 22.075C164.277 20.6417 165.552 19.925 167.136 19.925C168.002 19.925 168.886 20.1667 169.786 20.65C169.919 20.35 170.027 20.1333 170.111 20C171.311 20 172.636 20.2917 174.086 20.875ZM166.561 26.75C166.561 27.5833 166.619 28.1083 166.736 28.325C166.852 28.5417 167.069 28.65 167.386 28.65C167.702 28.65 168.011 28.525 168.311 28.275C168.377 26.3417 168.694 24.3167 169.261 22.2C169.011 22.05 168.719 21.975 168.386 21.975C168.069 21.975 167.777 22.1583 167.511 22.525C167.261 22.8917 167.069 23.35 166.936 23.9C166.686 24.95 166.561 25.9 166.561 26.75ZM183.324 27.625C183.324 28.6583 182.841 29.5333 181.874 30.25C180.924 30.95 179.807 31.3 178.524 31.3C177.241 31.3 176.182 31.0833 175.349 30.65C174.532 30.2167 174.124 29.8083 174.124 29.425C174.124 29.025 174.374 28.525 174.874 27.925C175.391 27.3083 175.916 26.95 176.449 26.85C177.216 27.2667 177.907 28.1917 178.524 29.625C179.007 29.625 179.249 29.4667 179.249 29.15C179.249 28.9167 179.182 28.7 179.049 28.5C178.916 28.3 178.816 28.1417 178.749 28.025C178.682 27.9083 178.566 27.75 178.399 27.55C178.232 27.3333 178.107 27.175 178.024 27.075C177.607 26.575 177.232 26.1167 176.899 25.7C176.099 24.7 175.699 23.825 175.699 23.075C175.699 22.3083 175.941 21.6833 176.424 21.2C177.257 20.35 178.482 19.925 180.099 19.925C181.116 19.925 181.924 20.125 182.524 20.525C183.124 20.9083 183.424 21.4917 183.424 22.275C183.424 23.0417 182.966 23.925 182.049 24.925C182.899 25.9083 183.324 26.8083 183.324 27.625ZM181.649 23.05C181.849 22.7333 181.949 22.45 181.949 22.2C181.949 21.95 181.841 21.7583 181.624 21.625C181.407 21.4917 181.149 21.425 180.849 21.425C180.549 21.425 180.316 21.5 180.149 21.65C179.999 21.7833 179.924 21.9667 179.924 22.2C179.924 22.4333 180.282 22.95 180.999 23.75C181.232 23.5833 181.449 23.35 181.649 23.05ZM190.468 21.625C190.468 22.3583 190.26 23.5 189.843 25.05C189.426 26.5833 189.218 27.5833 189.218 28.05C189.218 28.5167 189.31 28.75 189.493 28.75C189.676 28.75 190.01 28.6667 190.493 28.5L190.718 28.4L191.168 29.65C190.601 30.0833 189.893 30.4667 189.043 30.8C188.21 31.1333 187.451 31.3 186.768 31.3C186.085 31.3 185.543 31.1083 185.143 30.725C184.76 30.3417 184.568 29.7917 184.568 29.075C184.568 28.3417 184.768 27.2333 185.168 25.75C185.585 24.25 185.793 23.3 185.793 22.9C185.793 22.2833 185.576 21.7 185.143 21.15L184.943 20.875L185.018 20.45C185.885 20.1833 187.568 20.05 190.068 20.05C190.335 20.35 190.468 20.875 190.468 21.625ZM188.593 18.1C187.843 18.1 187.251 17.9 186.818 17.5C186.401 17.1 186.193 16.5917 186.193 15.975C186.193 15.3417 186.451 14.8167 186.968 14.4C187.501 13.9667 188.143 13.75 188.893 13.75C189.643 13.75 190.226 13.925 190.643 14.275C191.06 14.625 191.268 15.1167 191.268 15.75C191.268 16.3833 191.01 16.9333 190.493 17.4C189.993 17.8667 189.36 18.1 188.593 18.1Z" fill="white"/>
<path d="M17.73 17.8C17.44 17.8 17.145 17.855 16.845 17.965C17.265 18.325 17.475 18.77 17.475 19.3C17.475 19.82 17.32 20.29 17.01 20.71C16.71 21.13 16.335 21.34 15.885 21.34C15.435 21.34 15.075 21.2 14.805 20.92C14.545 20.64 14.415 20.27 14.415 19.81C14.415 19.35 14.555 18.92 14.835 18.52C14.465 18.62 14.16 18.855 13.92 19.225C13.68 19.585 13.56 20.04 13.56 20.59C13.56 21.14 13.64 21.605 13.8 21.985C14.15 21.935 14.515 21.91 14.895 21.91C15.285 21.91 15.64 22.01 15.96 22.21C16.29 22.4 16.455 22.67 16.455 23.02C16.455 23.37 16.31 23.67 16.02 23.92C15.73 24.16 15.345 24.28 14.865 24.28C14.385 24.28 13.82 24.09 13.17 23.71C12.83 24.16 12.66 24.62 12.66 25.09C12.66 25.55 12.795 25.91 13.065 26.17C13.335 26.43 13.69 26.56 14.13 26.56C15.04 26.56 15.925 26.09 16.785 25.15L17.43 25.69C17.23 26.01 16.965 26.33 16.635 26.65C16.315 26.97 16.005 27.23 15.705 27.43C15.405 27.63 15.02 27.805 14.55 27.955C14.09 28.105 13.615 28.18 13.125 28.18C12.195 28.18 11.405 27.95 10.755 27.49C10.105 27.02 9.78 26.3 9.78 25.33C9.78 24.76 9.965 24.245 10.335 23.785C10.715 23.315 11.215 22.925 11.835 22.615C11.285 21.985 11.01 21.28 11.01 20.5C11.01 19.51 11.395 18.74 12.165 18.19C12.935 17.63 13.825 17.35 14.835 17.35C15.215 17.35 15.56 17.395 15.87 17.485C16.56 17.025 17.295 16.795 18.075 16.795C18.865 16.795 19.43 17 19.77 17.41C19.75 17.76 19.64 18.05 19.44 18.28L19.335 18.4C18.965 18 18.43 17.8 17.73 17.8ZM16.29 19.54C16.29 19.1 16.14 18.79 15.84 18.61C15.55 18.95 15.405 19.33 15.405 19.75C15.405 20.16 15.54 20.365 15.81 20.365C15.95 20.365 16.065 20.29 16.155 20.14C16.245 19.98 16.29 19.78 16.29 19.54ZM14.925 22.705C14.725 22.705 14.52 22.745 14.31 22.825C14.53 23.125 14.785 23.275 15.075 23.275C15.365 23.275 15.51 23.185 15.51 23.005C15.51 22.805 15.315 22.705 14.925 22.705ZM30.6682 20.845C30.6682 19.865 30.2432 18.95 29.3932 18.1C29.6132 17.67 29.8982 17.28 30.2482 16.93C30.6082 16.58 30.9082 16.34 31.1482 16.21L31.5082 16C31.9582 16 32.3432 16.26 32.6632 16.78C32.9932 17.29 33.1582 17.865 33.1582 18.505C33.1582 19.635 32.8282 20.965 32.1682 22.495C31.5082 24.015 30.6732 25.345 29.6632 26.485C28.6632 27.615 27.7332 28.18 26.8732 28.18C25.7932 28.18 25.1782 27.675 25.0282 26.665C24.6082 27.135 24.1582 27.505 23.6782 27.775C23.1982 28.045 22.7082 28.18 22.2082 28.18C21.7082 28.18 21.2832 28.01 20.9332 27.67C20.5932 27.32 20.4232 26.765 20.4232 26.005C20.4232 25.475 20.4482 24.66 20.4982 23.56C19.5582 23.51 18.7832 23.195 18.1732 22.615C17.5632 22.035 17.2582 21.39 17.2582 20.68C17.2582 19.74 17.6832 18.95 18.5332 18.31C19.3832 17.67 20.2882 17.35 21.2482 17.35C21.9282 17.35 22.4832 17.57 22.9132 18.01C23.3532 18.44 23.5732 19.11 23.5732 20.02C23.5732 20.59 23.5382 21.425 23.4682 22.525C23.3982 23.625 23.3632 24.51 23.3632 25.18C23.3632 25.85 23.4582 26.185 23.6482 26.185C23.7982 26.185 24.0082 26.065 24.2782 25.825C24.5582 25.575 24.8032 25.295 25.0132 24.985C25.0332 24.695 25.0782 24.245 25.1482 23.635C25.2982 22.325 25.3732 21.195 25.3732 20.245C25.3732 19.295 25.2632 18.54 25.0432 17.98C26.2232 17.59 27.2782 17.39 28.2082 17.38C28.3182 17.77 28.3732 18.395 28.3732 19.255C28.3732 20.105 28.2982 21.21 28.1482 22.57C27.9982 23.93 27.9232 24.88 27.9232 25.42C27.9232 25.95 27.9982 26.215 28.1482 26.215C28.2982 26.215 28.4982 26.055 28.7482 25.735C29.0082 25.405 29.2682 24.995 29.5282 24.505C29.7882 24.005 30.0282 23.425 30.2482 22.765C30.4682 22.095 30.6082 21.455 30.6682 20.845ZM20.5582 22.36C20.6082 21.86 20.6332 21.33 20.6332 20.77C20.6332 20.2 20.5882 19.725 20.4982 19.345C20.4082 18.965 20.2082 18.775 19.8982 18.775C19.5982 18.775 19.2832 18.97 18.9532 19.36C18.6332 19.74 18.4732 20.185 18.4732 20.695C18.4732 21.195 18.6782 21.6 19.0882 21.91C19.4982 22.21 19.9882 22.36 20.5582 22.36Z" fill="black"/>
</svg>
