<svg width="192" height="43" viewBox="0 0 192 43" fill="none" xmlns="http://www.w3.org/2000/svg">
<rect x="0.5" y="0.5" width="40" height="41.3898" fill="#3A86FF" stroke="black"/>
<path d="M61.55 14.2036C61.0667 14.2036 60.575 14.2953 60.075 14.4786C60.775 15.0786 61.125 15.8203 61.125 16.7036C61.125 17.5703 60.8667 18.3536 60.35 19.0536C59.85 19.7536 59.225 20.1036 58.475 20.1036C57.725 20.1036 57.125 19.8703 56.675 19.4036C56.2417 18.9369 56.025 18.3203 56.025 17.5536C56.025 16.7869 56.2583 16.0703 56.725 15.4036C56.1083 15.5703 55.6 15.9619 55.2 16.5786C54.8 17.1786 54.6 17.9369 54.6 18.8536C54.6 19.7703 54.7333 20.5453 55 21.1786C55.5833 21.0953 56.1917 21.0536 56.825 21.0536C57.475 21.0536 58.0667 21.2203 58.6 21.5536C59.15 21.8703 59.425 22.3203 59.425 22.9036C59.425 23.4869 59.1833 23.9869 58.7 24.4036C58.2167 24.8036 57.575 25.0036 56.775 25.0036C55.975 25.0036 55.0333 24.6869 53.95 24.0536C53.3833 24.8036 53.1 25.5703 53.1 26.3536C53.1 27.1203 53.325 27.7203 53.775 28.1536C54.225 28.5869 54.8167 28.8036 55.55 28.8036C57.0667 28.8036 58.5417 28.0203 59.975 26.4536L61.05 27.3536C60.7167 27.8869 60.275 28.4203 59.725 28.9536C59.1917 29.4869 58.675 29.9203 58.175 30.2536C57.675 30.5869 57.0333 30.8786 56.25 31.1286C55.4833 31.3786 54.6917 31.5036 53.875 31.5036C52.325 31.5036 51.0083 31.1203 49.925 30.3536C48.8417 29.5703 48.3 28.3703 48.3 26.7536C48.3 25.8036 48.6083 24.9453 49.225 24.1786C49.8583 23.3953 50.6917 22.7453 51.725 22.2286C50.8083 21.1786 50.35 20.0036 50.35 18.7036C50.35 17.0536 50.9917 15.7703 52.275 14.8536C53.5583 13.9203 55.0417 13.4536 56.725 13.4536C57.3583 13.4536 57.9333 13.5286 58.45 13.6786C59.6 12.9119 60.825 12.5286 62.125 12.5286C63.4417 12.5286 64.3833 12.8703 64.95 13.5536C64.9167 14.1369 64.7333 14.6203 64.4 15.0036L64.225 15.2036C63.6083 14.5369 62.7167 14.2036 61.55 14.2036ZM59.15 17.1036C59.15 16.3703 58.9 15.8536 58.4 15.5536C57.9167 16.1203 57.675 16.7536 57.675 17.4536C57.675 18.1369 57.9 18.4786 58.35 18.4786C58.5833 18.4786 58.775 18.3536 58.925 18.1036C59.075 17.8369 59.15 17.5036 59.15 17.1036ZM56.875 22.3786C56.5417 22.3786 56.2 22.4453 55.85 22.5786C56.2167 23.0786 56.6417 23.3286 57.125 23.3286C57.6083 23.3286 57.85 23.1786 57.85 22.8786C57.85 22.5453 57.525 22.3786 56.875 22.3786ZM62.3137 31.3536H61.8887C61.8887 30.3203 62.122 28.7536 62.5887 26.6536C63.072 24.5536 63.3137 23.3453 63.3137 23.0286C63.3137 22.7119 63.2387 22.4036 63.0887 22.1036C62.9387 21.8036 62.7887 21.5786 62.6387 21.4286L62.4137 21.2036L62.4637 20.8286C63.447 20.5119 65.1637 20.3536 67.6137 20.3536C67.7803 20.7369 67.897 21.1369 67.9637 21.5536C69.4803 20.6203 70.7553 20.1536 71.7887 20.1536C72.4887 20.1536 73.0387 20.3869 73.4387 20.8536C73.8387 21.3036 74.0387 21.8536 74.0387 22.5036C74.0387 23.1369 73.8553 24.1619 73.4887 25.5786C73.122 26.9953 72.9387 27.9203 72.9387 28.3536C72.9387 28.7703 72.997 28.9786 73.1137 28.9786L74.4387 28.6286L74.8887 29.8786C74.3553 30.2786 73.6553 30.6536 72.7887 31.0036C71.9387 31.3369 71.1553 31.5036 70.4387 31.5036C69.022 31.5036 68.3137 30.7703 68.3137 29.3036C68.3137 28.6703 68.4887 27.6369 68.8387 26.2036C69.1887 24.7703 69.3637 23.8786 69.3637 23.5286C69.3637 23.1619 69.247 22.9786 69.0137 22.9786C68.7137 22.9786 68.3137 23.1453 67.8137 23.4786C67.747 23.7786 67.5803 24.5036 67.3137 25.6536C66.7803 28.0703 66.5137 29.8119 66.5137 30.8786C65.697 31.1953 64.297 31.3536 62.3137 31.3536ZM79.5564 31.5036C78.2564 31.5036 77.2314 31.0953 76.4814 30.2786C75.7314 29.4453 75.3564 28.2786 75.3564 26.7786C75.3564 24.9453 75.8981 23.3953 76.9814 22.1286C78.0648 20.8453 79.4898 20.2036 81.2564 20.2036L82.3814 20.3036C82.7814 20.1869 83.1564 20.1286 83.5064 20.1286C84.3398 20.1286 84.9314 20.4119 85.2814 20.9786C85.6481 21.5453 85.8564 22.3536 85.9064 23.4036C86.6064 23.3703 87.2731 23.2619 87.9064 23.0786L88.2564 22.9786C88.3731 23.0953 88.4564 23.4453 88.5064 24.0286L88.5314 24.3036C87.7814 24.6869 86.8648 24.9869 85.7814 25.2036C85.4148 26.9703 84.6898 28.4619 83.6064 29.6786C82.5231 30.8953 81.1731 31.5036 79.5564 31.5036ZM80.0564 26.6786C80.0564 28.2286 80.4481 29.0036 81.2314 29.0036C81.7814 29.0036 82.3398 28.6536 82.9064 27.9536C83.4898 27.2536 83.8898 26.4036 84.1064 25.4036C82.4064 25.4036 81.5564 24.5869 81.5564 22.9536C81.5564 22.6703 81.5814 22.3786 81.6314 22.0786C81.4648 22.0786 81.3398 22.1036 81.2564 22.1536C80.9731 22.4536 80.6981 23.0619 80.4314 23.9786C80.1814 24.8786 80.0564 25.7786 80.0564 26.6786ZM93.3078 21.8036C92.7911 21.8036 92.3495 22.2619 91.9828 23.1786C91.6161 24.0953 91.4328 25.0203 91.4328 25.9536C91.4328 28.0036 92.0245 29.0286 93.2078 29.0286C93.9578 29.0286 94.8078 28.6703 95.7578 27.9536L96.5578 29.0536C95.8578 29.8203 95.0161 30.4203 94.0328 30.8536C93.0661 31.2869 92.0995 31.5036 91.1328 31.5036C89.8328 31.5036 88.7745 31.1119 87.9578 30.3286C87.1578 29.5286 86.7578 28.3286 86.7578 26.7286C86.7578 24.7953 87.3495 23.2119 88.5328 21.9786C89.7328 20.7453 91.2995 20.1286 93.2328 20.1286C94.4828 20.1286 95.4661 20.3869 96.1828 20.9036C96.8995 21.4036 97.2578 22.0453 97.2578 22.8286C97.2578 23.5953 97.0245 24.2619 96.5578 24.8286C96.0078 24.8286 95.4078 24.7286 94.7578 24.5286C94.1245 24.3119 93.6161 24.0453 93.2328 23.7286L93.6078 21.8536C93.5078 21.8203 93.4078 21.8036 93.3078 21.8036ZM100.429 14.6786C100.429 14.2453 100.387 13.8619 100.304 13.5286C101.954 13.0786 103.454 12.8536 104.804 12.8536C104.97 13.0536 105.054 13.4953 105.054 14.1786C105.054 15.3953 104.679 17.7286 103.929 21.1786C105.262 20.4786 106.437 20.1286 107.454 20.1286C108.487 20.1286 109.27 20.3369 109.804 20.7536C110.354 21.1703 110.629 21.7536 110.629 22.5036C110.629 23.9536 109.554 24.9869 107.404 25.6036C107.937 27.9036 108.454 29.0536 108.954 29.0536L110.154 28.7286L110.704 29.9536C110.287 30.2869 109.645 30.6286 108.779 30.9786C107.912 31.3286 107.079 31.5036 106.279 31.5036C105.479 31.5036 104.87 31.2036 104.454 30.6036C104.037 30.0036 103.77 29.2203 103.654 28.2536C103.537 27.2869 103.479 26.2036 103.479 25.0036C104.279 24.8036 104.912 24.5203 105.379 24.1536C105.845 23.7703 106.079 23.3953 106.079 23.0286C106.079 22.6453 105.879 22.4536 105.479 22.4536C105.162 22.4536 104.787 22.5453 104.354 22.7286C103.937 22.9119 103.629 23.0869 103.429 23.2536C102.529 27.0536 102.079 29.5953 102.079 30.8786C100.795 31.1619 99.2702 31.3036 97.5035 31.3036C97.4868 31.1703 97.4785 31.0119 97.4785 30.8286C97.4785 29.9619 97.9702 27.4286 98.9535 23.2286C99.9368 19.0119 100.429 16.1619 100.429 14.6786ZM137.411 19.2786C137.411 17.6453 136.702 16.1203 135.286 14.7036C135.652 13.9869 136.127 13.3369 136.711 12.7536C137.311 12.1703 137.811 11.7703 138.211 11.5536L138.811 11.2036C139.561 11.2036 140.202 11.6369 140.736 12.5036C141.286 13.3536 141.561 14.3119 141.561 15.3786C141.561 17.2619 141.011 19.4786 139.911 22.0286C138.811 24.5619 137.419 26.7786 135.736 28.6786C134.069 30.5619 132.519 31.5036 131.086 31.5036C129.286 31.5036 128.261 30.6619 128.011 28.9786C127.311 29.7619 126.561 30.3786 125.761 30.8286C124.961 31.2786 124.144 31.5036 123.311 31.5036C122.477 31.5036 121.769 31.2203 121.186 30.6536C120.619 30.0703 120.336 29.1453 120.336 27.8786C120.336 26.9953 120.377 25.6369 120.461 23.8036C118.894 23.7203 117.602 23.1953 116.586 22.2286C115.569 21.2619 115.061 20.1869 115.061 19.0036C115.061 17.4369 115.769 16.1203 117.186 15.0536C118.602 13.9869 120.111 13.4536 121.711 13.4536C122.844 13.4536 123.769 13.8203 124.486 14.5536C125.219 15.2703 125.586 16.3869 125.586 17.9036C125.586 18.8536 125.527 20.2453 125.411 22.0786C125.294 23.9119 125.236 25.3869 125.236 26.5036C125.236 27.6203 125.394 28.1786 125.711 28.1786C125.961 28.1786 126.311 27.9786 126.761 27.5786C127.227 27.1619 127.636 26.6953 127.986 26.1786C128.019 25.6953 128.094 24.9453 128.211 23.9286C128.461 21.7453 128.586 19.8619 128.586 18.2786C128.586 16.6953 128.402 15.4369 128.036 14.5036C130.002 13.8536 131.761 13.5203 133.311 13.5036C133.494 14.1536 133.586 15.1953 133.586 16.6286C133.586 18.0453 133.461 19.8869 133.211 22.1536C132.961 24.4203 132.836 26.0036 132.836 26.9036C132.836 27.7869 132.961 28.2286 133.211 28.2286C133.461 28.2286 133.794 27.9619 134.211 27.4286C134.644 26.8786 135.077 26.1953 135.511 25.3786C135.944 24.5453 136.344 23.5786 136.711 22.4786C137.077 21.3619 137.311 20.2953 137.411 19.2786ZM120.561 21.8036C120.644 20.9703 120.686 20.0869 120.686 19.1536C120.686 18.2036 120.611 17.4119 120.461 16.7786C120.311 16.1453 119.977 15.8286 119.461 15.8286C118.961 15.8286 118.436 16.1536 117.886 16.8036C117.352 17.4369 117.086 18.1786 117.086 19.0286C117.086 19.8619 117.427 20.5369 118.111 21.0536C118.794 21.5536 119.611 21.8036 120.561 21.8036ZM153.383 21.0786C153.033 22.1619 152.733 23.4536 152.483 24.9536C152.233 26.4369 152.108 27.4786 152.108 28.0786C152.108 28.6619 152.199 28.9536 152.383 28.9536L153.633 28.6036L154.083 29.8536C153.549 30.2703 152.866 30.6536 152.033 31.0036C151.216 31.3369 150.491 31.5036 149.858 31.5036C148.774 31.5036 148.091 31.0369 147.808 30.1036C146.491 31.0369 145.324 31.5036 144.308 31.5036C143.308 31.5036 142.533 31.1369 141.983 30.4036C141.433 29.6703 141.158 28.6203 141.158 27.2536C141.158 25.3703 141.641 23.7119 142.608 22.2786C143.574 20.8453 144.849 20.1286 146.433 20.1286C147.299 20.1286 148.183 20.3703 149.083 20.8536C149.216 20.5536 149.324 20.3369 149.408 20.2036C150.608 20.2036 151.933 20.4953 153.383 21.0786ZM145.858 26.9536C145.858 27.7869 145.916 28.3119 146.033 28.5286C146.149 28.7453 146.366 28.8536 146.683 28.8536C146.999 28.8536 147.308 28.7286 147.608 28.4786C147.674 26.5453 147.991 24.5203 148.558 22.4036C148.308 22.2536 148.016 22.1786 147.683 22.1786C147.366 22.1786 147.074 22.3619 146.808 22.7286C146.558 23.0953 146.366 23.5536 146.233 24.1036C145.983 25.1536 145.858 26.1036 145.858 26.9536ZM161.214 29.8036C160.681 30.2703 159.981 30.6703 159.114 31.0036C158.247 31.3369 157.456 31.5036 156.739 31.5036C156.039 31.5036 155.464 31.3036 155.014 30.9036C154.564 30.4869 154.339 29.8953 154.339 29.1286C154.339 28.3619 154.756 26.2286 155.589 22.7286C156.439 19.2119 156.864 16.6036 156.864 14.9036C156.864 14.5369 156.814 14.0703 156.714 13.5036C158.281 13.0703 159.797 12.8536 161.264 12.8536C161.414 13.1203 161.489 13.5536 161.489 14.1536C161.489 15.2869 161.064 17.7619 160.214 21.5786C159.381 25.3786 158.964 27.5703 158.964 28.1536C158.964 28.7369 159.064 29.0286 159.264 29.0286C159.431 29.0286 159.789 28.9203 160.339 28.7036L160.614 28.5786L161.214 29.8036ZM174.086 21.0786C173.736 22.1619 173.436 23.4536 173.186 24.9536C172.936 26.4369 172.811 27.4786 172.811 28.0786C172.811 28.6619 172.902 28.9536 173.086 28.9536L174.336 28.6036L174.786 29.8536C174.252 30.2703 173.569 30.6536 172.736 31.0036C171.919 31.3369 171.194 31.5036 170.561 31.5036C169.477 31.5036 168.794 31.0369 168.511 30.1036C167.194 31.0369 166.027 31.5036 165.011 31.5036C164.011 31.5036 163.236 31.1369 162.686 30.4036C162.136 29.6703 161.861 28.6203 161.861 27.2536C161.861 25.3703 162.344 23.7119 163.311 22.2786C164.277 20.8453 165.552 20.1286 167.136 20.1286C168.002 20.1286 168.886 20.3703 169.786 20.8536C169.919 20.5536 170.027 20.3369 170.111 20.2036C171.311 20.2036 172.636 20.4953 174.086 21.0786ZM166.561 26.9536C166.561 27.7869 166.619 28.3119 166.736 28.5286C166.852 28.7453 167.069 28.8536 167.386 28.8536C167.702 28.8536 168.011 28.7286 168.311 28.4786C168.377 26.5453 168.694 24.5203 169.261 22.4036C169.011 22.2536 168.719 22.1786 168.386 22.1786C168.069 22.1786 167.777 22.3619 167.511 22.7286C167.261 23.0953 167.069 23.5536 166.936 24.1036C166.686 25.1536 166.561 26.1036 166.561 26.9536ZM183.324 27.8286C183.324 28.8619 182.841 29.7369 181.874 30.4536C180.924 31.1536 179.807 31.5036 178.524 31.5036C177.241 31.5036 176.182 31.2869 175.349 30.8536C174.532 30.4203 174.124 30.0119 174.124 29.6286C174.124 29.2286 174.374 28.7286 174.874 28.1286C175.391 27.5119 175.916 27.1536 176.449 27.0536C177.216 27.4703 177.907 28.3953 178.524 29.8286C179.007 29.8286 179.249 29.6703 179.249 29.3536C179.249 29.1203 179.182 28.9036 179.049 28.7036C178.916 28.5036 178.816 28.3453 178.749 28.2286C178.682 28.1119 178.566 27.9536 178.399 27.7536C178.232 27.5369 178.107 27.3786 178.024 27.2786C177.607 26.7786 177.232 26.3203 176.899 25.9036C176.099 24.9036 175.699 24.0286 175.699 23.2786C175.699 22.5119 175.941 21.8869 176.424 21.4036C177.257 20.5536 178.482 20.1286 180.099 20.1286C181.116 20.1286 181.924 20.3286 182.524 20.7286C183.124 21.1119 183.424 21.6953 183.424 22.4786C183.424 23.2453 182.966 24.1286 182.049 25.1286C182.899 26.1119 183.324 27.0119 183.324 27.8286ZM181.649 23.2536C181.849 22.9369 181.949 22.6536 181.949 22.4036C181.949 22.1536 181.841 21.9619 181.624 21.8286C181.407 21.6953 181.149 21.6286 180.849 21.6286C180.549 21.6286 180.316 21.7036 180.149 21.8536C179.999 21.9869 179.924 22.1703 179.924 22.4036C179.924 22.6369 180.282 23.1536 180.999 23.9536C181.232 23.7869 181.449 23.5536 181.649 23.2536ZM190.468 21.8286C190.468 22.5619 190.26 23.7036 189.843 25.2536C189.426 26.7869 189.218 27.7869 189.218 28.2536C189.218 28.7203 189.31 28.9536 189.493 28.9536C189.676 28.9536 190.01 28.8703 190.493 28.7036L190.718 28.6036L191.168 29.8536C190.601 30.2869 189.893 30.6703 189.043 31.0036C188.21 31.3369 187.451 31.5036 186.768 31.5036C186.085 31.5036 185.543 31.3119 185.143 30.9286C184.76 30.5453 184.568 29.9953 184.568 29.2786C184.568 28.5453 184.768 27.4369 185.168 25.9536C185.585 24.4536 185.793 23.5036 185.793 23.1036C185.793 22.4869 185.576 21.9036 185.143 21.3536L184.943 21.0786L185.018 20.6536C185.885 20.3869 187.568 20.2536 190.068 20.2536C190.335 20.5536 190.468 21.0786 190.468 21.8286ZM188.593 18.3036C187.843 18.3036 187.251 18.1036 186.818 17.7036C186.401 17.3036 186.193 16.7953 186.193 16.1786C186.193 15.5453 186.451 15.0203 186.968 14.6036C187.501 14.1703 188.143 13.9536 188.893 13.9536C189.643 13.9536 190.226 14.1286 190.643 14.4786C191.06 14.8286 191.268 15.3203 191.268 15.9536C191.268 16.5869 191.01 17.1369 190.493 17.6036C189.993 18.0703 189.36 18.3036 188.593 18.3036Z" fill="white"/>
<path d="M17.73 18.2409C17.44 18.2409 17.145 18.2959 16.845 18.4059C17.265 18.7659 17.475 19.2109 17.475 19.7409C17.475 20.2609 17.32 20.7309 17.01 21.1509C16.71 21.5709 16.335 21.7809 15.885 21.7809C15.435 21.7809 15.075 21.6409 14.805 21.3609C14.545 21.0809 14.415 20.7109 14.415 20.2509C14.415 19.7909 14.555 19.3609 14.835 18.9609C14.465 19.0609 14.16 19.2959 13.92 19.6659C13.68 20.0259 13.56 20.4809 13.56 21.0309C13.56 21.5809 13.64 22.0459 13.8 22.4259C14.15 22.3759 14.515 22.3509 14.895 22.3509C15.285 22.3509 15.64 22.4509 15.96 22.6509C16.29 22.8409 16.455 23.1109 16.455 23.4609C16.455 23.8109 16.31 24.1109 16.02 24.3609C15.73 24.6009 15.345 24.7209 14.865 24.7209C14.385 24.7209 13.82 24.5309 13.17 24.1509C12.83 24.6009 12.66 25.0609 12.66 25.5309C12.66 25.9909 12.795 26.3509 13.065 26.6109C13.335 26.8709 13.69 27.0009 14.13 27.0009C15.04 27.0009 15.925 26.5309 16.785 25.5909L17.43 26.1309C17.23 26.4509 16.965 26.7709 16.635 27.0909C16.315 27.4109 16.005 27.6709 15.705 27.8709C15.405 28.0709 15.02 28.2459 14.55 28.3959C14.09 28.5459 13.615 28.6209 13.125 28.6209C12.195 28.6209 11.405 28.3909 10.755 27.9309C10.105 27.4609 9.78 26.7409 9.78 25.7709C9.78 25.2009 9.965 24.6859 10.335 24.2259C10.715 23.7559 11.215 23.3659 11.835 23.0559C11.285 22.4259 11.01 21.7209 11.01 20.9409C11.01 19.9509 11.395 19.1809 12.165 18.6309C12.935 18.0709 13.825 17.7909 14.835 17.7909C15.215 17.7909 15.56 17.8359 15.87 17.9259C16.56 17.4659 17.295 17.2359 18.075 17.2359C18.865 17.2359 19.43 17.4409 19.77 17.8509C19.75 18.2009 19.64 18.4909 19.44 18.7209L19.335 18.8409C18.965 18.4409 18.43 18.2409 17.73 18.2409ZM16.29 19.9809C16.29 19.5409 16.14 19.2309 15.84 19.0509C15.55 19.3909 15.405 19.7709 15.405 20.1909C15.405 20.6009 15.54 20.8059 15.81 20.8059C15.95 20.8059 16.065 20.7309 16.155 20.5809C16.245 20.4209 16.29 20.2209 16.29 19.9809ZM14.925 23.1459C14.725 23.1459 14.52 23.1859 14.31 23.2659C14.53 23.5659 14.785 23.7159 15.075 23.7159C15.365 23.7159 15.51 23.6259 15.51 23.4459C15.51 23.2459 15.315 23.1459 14.925 23.1459ZM30.6682 21.2859C30.6682 20.3059 30.2432 19.3909 29.3932 18.5409C29.6132 18.1109 29.8982 17.7209 30.2482 17.3709C30.6082 17.0209 30.9082 16.7809 31.1482 16.6509L31.5082 16.4409C31.9582 16.4409 32.3432 16.7009 32.6632 17.2209C32.9932 17.7309 33.1582 18.3059 33.1582 18.9459C33.1582 20.0759 32.8282 21.4059 32.1682 22.9359C31.5082 24.4559 30.6732 25.7859 29.6632 26.9259C28.6632 28.0559 27.7332 28.6209 26.8732 28.6209C25.7932 28.6209 25.1782 28.1159 25.0282 27.1059C24.6082 27.5759 24.1582 27.9459 23.6782 28.2159C23.1982 28.4859 22.7082 28.6209 22.2082 28.6209C21.7082 28.6209 21.2832 28.4509 20.9332 28.1109C20.5932 27.7609 20.4232 27.2059 20.4232 26.4459C20.4232 25.9159 20.4482 25.1009 20.4982 24.0009C19.5582 23.9509 18.7832 23.6359 18.1732 23.0559C17.5632 22.4759 17.2582 21.8309 17.2582 21.1209C17.2582 20.1809 17.6832 19.3909 18.5332 18.7509C19.3832 18.1109 20.2882 17.7909 21.2482 17.7909C21.9282 17.7909 22.4832 18.0109 22.9132 18.4509C23.3532 18.8809 23.5732 19.5509 23.5732 20.4609C23.5732 21.0309 23.5382 21.8659 23.4682 22.9659C23.3982 24.0659 23.3632 24.9509 23.3632 25.6209C23.3632 26.2909 23.4582 26.6259 23.6482 26.6259C23.7982 26.6259 24.0082 26.5059 24.2782 26.2659C24.5582 26.0159 24.8032 25.7359 25.0132 25.4259C25.0332 25.1359 25.0782 24.6859 25.1482 24.0759C25.2982 22.7659 25.3732 21.6359 25.3732 20.6859C25.3732 19.7359 25.2632 18.9809 25.0432 18.4209C26.2232 18.0309 27.2782 17.8309 28.2082 17.8209C28.3182 18.2109 28.3732 18.8359 28.3732 19.6959C28.3732 20.5459 28.2982 21.6509 28.1482 23.0109C27.9982 24.3709 27.9232 25.3209 27.9232 25.8609C27.9232 26.3909 27.9982 26.6559 28.1482 26.6559C28.2982 26.6559 28.4982 26.4959 28.7482 26.1759C29.0082 25.8459 29.2682 25.4359 29.5282 24.9459C29.7882 24.4459 30.0282 23.8659 30.2482 23.2059C30.4682 22.5359 30.6082 21.8959 30.6682 21.2859ZM20.5582 22.8009C20.6082 22.3009 20.6332 21.7709 20.6332 21.2109C20.6332 20.6409 20.5882 20.1659 20.4982 19.7859C20.4082 19.4059 20.2082 19.2159 19.8982 19.2159C19.5982 19.2159 19.2832 19.4109 18.9532 19.8009C18.6332 20.1809 18.4732 20.6259 18.4732 21.1359C18.4732 21.6359 18.6782 22.0409 19.0882 22.3509C19.4982 22.6509 19.9882 22.8009 20.5582 22.8009Z" fill="black"/>
</svg>
