<svg width="192" height="43" viewBox="0 0 192 43" fill="none" xmlns="http://www.w3.org/2000/svg">
<rect x="0.5" y="0.5" width="40" height="41.3898" fill="#14FFF7" stroke="black"/>
<path d="M61.55 14.2034C61.0667 14.2034 60.575 14.295 60.075 14.4784C60.775 15.0784 61.125 15.82 61.125 16.7034C61.125 17.57 60.8667 18.3534 60.35 19.0534C59.85 19.7534 59.225 20.1034 58.475 20.1034C57.725 20.1034 57.125 19.87 56.675 19.4034C56.2417 18.9367 56.025 18.32 56.025 17.5534C56.025 16.7867 56.2583 16.07 56.725 15.4034C56.1083 15.57 55.6 15.9617 55.2 16.5784C54.8 17.1784 54.6 17.9367 54.6 18.8534C54.6 19.77 54.7333 20.545 55 21.1784C55.5833 21.095 56.1917 21.0534 56.825 21.0534C57.475 21.0534 58.0667 21.22 58.6 21.5534C59.15 21.87 59.425 22.32 59.425 22.9034C59.425 23.4867 59.1833 23.9867 58.7 24.4034C58.2167 24.8034 57.575 25.0034 56.775 25.0034C55.975 25.0034 55.0333 24.6867 53.95 24.0534C53.3833 24.8034 53.1 25.57 53.1 26.3534C53.1 27.12 53.325 27.72 53.775 28.1534C54.225 28.5867 54.8167 28.8034 55.55 28.8034C57.0667 28.8034 58.5417 28.02 59.975 26.4534L61.05 27.3534C60.7167 27.8867 60.275 28.42 59.725 28.9534C59.1917 29.4867 58.675 29.92 58.175 30.2534C57.675 30.5867 57.0333 30.8784 56.25 31.1284C55.4833 31.3784 54.6917 31.5034 53.875 31.5034C52.325 31.5034 51.0083 31.12 49.925 30.3534C48.8417 29.57 48.3 28.37 48.3 26.7534C48.3 25.8034 48.6083 24.945 49.225 24.1784C49.8583 23.395 50.6917 22.745 51.725 22.2284C50.8083 21.1784 50.35 20.0034 50.35 18.7034C50.35 17.0534 50.9917 15.77 52.275 14.8534C53.5583 13.92 55.0417 13.4534 56.725 13.4534C57.3583 13.4534 57.9333 13.5284 58.45 13.6784C59.6 12.9117 60.825 12.5284 62.125 12.5284C63.4417 12.5284 64.3833 12.87 64.95 13.5534C64.9167 14.1367 64.7333 14.62 64.4 15.0034L64.225 15.2034C63.6083 14.5367 62.7167 14.2034 61.55 14.2034ZM59.15 17.1034C59.15 16.37 58.9 15.8534 58.4 15.5534C57.9167 16.12 57.675 16.7534 57.675 17.4534C57.675 18.1367 57.9 18.4784 58.35 18.4784C58.5833 18.4784 58.775 18.3534 58.925 18.1034C59.075 17.8367 59.15 17.5034 59.15 17.1034ZM56.875 22.3784C56.5417 22.3784 56.2 22.445 55.85 22.5784C56.2167 23.0784 56.6417 23.3284 57.125 23.3284C57.6083 23.3284 57.85 23.1784 57.85 22.8784C57.85 22.545 57.525 22.3784 56.875 22.3784ZM62.3137 31.3534H61.8887C61.8887 30.32 62.122 28.7534 62.5887 26.6534C63.072 24.5534 63.3137 23.345 63.3137 23.0284C63.3137 22.7117 63.2387 22.4034 63.0887 22.1034C62.9387 21.8034 62.7887 21.5784 62.6387 21.4284L62.4137 21.2034L62.4637 20.8284C63.447 20.5117 65.1637 20.3534 67.6137 20.3534C67.7803 20.7367 67.897 21.1367 67.9637 21.5534C69.4803 20.62 70.7553 20.1534 71.7887 20.1534C72.4887 20.1534 73.0387 20.3867 73.4387 20.8534C73.8387 21.3034 74.0387 21.8534 74.0387 22.5034C74.0387 23.1367 73.8553 24.1617 73.4887 25.5784C73.122 26.995 72.9387 27.92 72.9387 28.3534C72.9387 28.77 72.997 28.9784 73.1137 28.9784L74.4387 28.6284L74.8887 29.8784C74.3553 30.2784 73.6553 30.6534 72.7887 31.0034C71.9387 31.3367 71.1553 31.5034 70.4387 31.5034C69.022 31.5034 68.3137 30.77 68.3137 29.3034C68.3137 28.67 68.4887 27.6367 68.8387 26.2034C69.1887 24.77 69.3637 23.8784 69.3637 23.5284C69.3637 23.1617 69.247 22.9784 69.0137 22.9784C68.7137 22.9784 68.3137 23.145 67.8137 23.4784C67.747 23.7784 67.5803 24.5034 67.3137 25.6534C66.7803 28.07 66.5137 29.8117 66.5137 30.8784C65.697 31.195 64.297 31.3534 62.3137 31.3534ZM79.5564 31.5034C78.2564 31.5034 77.2314 31.095 76.4814 30.2784C75.7314 29.445 75.3564 28.2784 75.3564 26.7784C75.3564 24.945 75.8981 23.395 76.9814 22.1284C78.0648 20.845 79.4898 20.2034 81.2564 20.2034L82.3814 20.3034C82.7814 20.1867 83.1564 20.1284 83.5064 20.1284C84.3398 20.1284 84.9314 20.4117 85.2814 20.9784C85.6481 21.545 85.8564 22.3534 85.9064 23.4034C86.6064 23.37 87.2731 23.2617 87.9064 23.0784L88.2564 22.9784C88.3731 23.095 88.4564 23.445 88.5064 24.0284L88.5314 24.3034C87.7814 24.6867 86.8648 24.9867 85.7814 25.2034C85.4148 26.97 84.6898 28.4617 83.6064 29.6784C82.5231 30.895 81.1731 31.5034 79.5564 31.5034ZM80.0564 26.6784C80.0564 28.2284 80.4481 29.0034 81.2314 29.0034C81.7814 29.0034 82.3398 28.6534 82.9064 27.9534C83.4898 27.2534 83.8898 26.4034 84.1064 25.4034C82.4064 25.4034 81.5564 24.5867 81.5564 22.9534C81.5564 22.67 81.5814 22.3784 81.6314 22.0784C81.4648 22.0784 81.3398 22.1034 81.2564 22.1534C80.9731 22.4534 80.6981 23.0617 80.4314 23.9784C80.1814 24.8784 80.0564 25.7784 80.0564 26.6784ZM93.3078 21.8034C92.7911 21.8034 92.3495 22.2617 91.9828 23.1784C91.6161 24.095 91.4328 25.02 91.4328 25.9534C91.4328 28.0034 92.0245 29.0284 93.2078 29.0284C93.9578 29.0284 94.8078 28.67 95.7578 27.9534L96.5578 29.0534C95.8578 29.82 95.0161 30.42 94.0328 30.8534C93.0661 31.2867 92.0995 31.5034 91.1328 31.5034C89.8328 31.5034 88.7745 31.1117 87.9578 30.3284C87.1578 29.5284 86.7578 28.3284 86.7578 26.7284C86.7578 24.795 87.3495 23.2117 88.5328 21.9784C89.7328 20.745 91.2995 20.1284 93.2328 20.1284C94.4828 20.1284 95.4661 20.3867 96.1828 20.9034C96.8995 21.4034 97.2578 22.045 97.2578 22.8284C97.2578 23.595 97.0245 24.2617 96.5578 24.8284C96.0078 24.8284 95.4078 24.7284 94.7578 24.5284C94.1245 24.3117 93.6161 24.045 93.2328 23.7284L93.6078 21.8534C93.5078 21.82 93.4078 21.8034 93.3078 21.8034ZM100.429 14.6784C100.429 14.245 100.387 13.8617 100.304 13.5284C101.954 13.0784 103.454 12.8534 104.804 12.8534C104.97 13.0534 105.054 13.495 105.054 14.1784C105.054 15.395 104.679 17.7284 103.929 21.1784C105.262 20.4784 106.437 20.1284 107.454 20.1284C108.487 20.1284 109.27 20.3367 109.804 20.7534C110.354 21.17 110.629 21.7534 110.629 22.5034C110.629 23.9534 109.554 24.9867 107.404 25.6034C107.937 27.9034 108.454 29.0534 108.954 29.0534L110.154 28.7284L110.704 29.9534C110.287 30.2867 109.645 30.6284 108.779 30.9784C107.912 31.3284 107.079 31.5034 106.279 31.5034C105.479 31.5034 104.87 31.2034 104.454 30.6034C104.037 30.0034 103.77 29.22 103.654 28.2534C103.537 27.2867 103.479 26.2034 103.479 25.0034C104.279 24.8034 104.912 24.52 105.379 24.1534C105.845 23.77 106.079 23.395 106.079 23.0284C106.079 22.645 105.879 22.4534 105.479 22.4534C105.162 22.4534 104.787 22.545 104.354 22.7284C103.937 22.9117 103.629 23.0867 103.429 23.2534C102.529 27.0534 102.079 29.595 102.079 30.8784C100.795 31.1617 99.2702 31.3034 97.5035 31.3034C97.4868 31.17 97.4785 31.0117 97.4785 30.8284C97.4785 29.9617 97.9702 27.4284 98.9535 23.2284C99.9368 19.0117 100.429 16.1617 100.429 14.6784ZM137.411 19.2784C137.411 17.645 136.702 16.12 135.286 14.7034C135.652 13.9867 136.127 13.3367 136.711 12.7534C137.311 12.17 137.811 11.77 138.211 11.5534L138.811 11.2034C139.561 11.2034 140.202 11.6367 140.736 12.5034C141.286 13.3534 141.561 14.3117 141.561 15.3784C141.561 17.2617 141.011 19.4784 139.911 22.0284C138.811 24.5617 137.419 26.7784 135.736 28.6784C134.069 30.5617 132.519 31.5034 131.086 31.5034C129.286 31.5034 128.261 30.6617 128.011 28.9784C127.311 29.7617 126.561 30.3784 125.761 30.8284C124.961 31.2784 124.144 31.5034 123.311 31.5034C122.477 31.5034 121.769 31.22 121.186 30.6534C120.619 30.07 120.336 29.145 120.336 27.8784C120.336 26.995 120.377 25.6367 120.461 23.8034C118.894 23.72 117.602 23.195 116.586 22.2284C115.569 21.2617 115.061 20.1867 115.061 19.0034C115.061 17.4367 115.769 16.12 117.186 15.0534C118.602 13.9867 120.111 13.4534 121.711 13.4534C122.844 13.4534 123.769 13.82 124.486 14.5534C125.219 15.27 125.586 16.3867 125.586 17.9034C125.586 18.8534 125.527 20.245 125.411 22.0784C125.294 23.9117 125.236 25.3867 125.236 26.5034C125.236 27.62 125.394 28.1784 125.711 28.1784C125.961 28.1784 126.311 27.9784 126.761 27.5784C127.227 27.1617 127.636 26.695 127.986 26.1784C128.019 25.695 128.094 24.945 128.211 23.9284C128.461 21.745 128.586 19.8617 128.586 18.2784C128.586 16.695 128.402 15.4367 128.036 14.5034C130.002 13.8534 131.761 13.52 133.311 13.5034C133.494 14.1534 133.586 15.195 133.586 16.6284C133.586 18.045 133.461 19.8867 133.211 22.1534C132.961 24.42 132.836 26.0034 132.836 26.9034C132.836 27.7867 132.961 28.2284 133.211 28.2284C133.461 28.2284 133.794 27.9617 134.211 27.4284C134.644 26.8784 135.077 26.195 135.511 25.3784C135.944 24.545 136.344 23.5784 136.711 22.4784C137.077 21.3617 137.311 20.295 137.411 19.2784ZM120.561 21.8034C120.644 20.97 120.686 20.0867 120.686 19.1534C120.686 18.2034 120.611 17.4117 120.461 16.7784C120.311 16.145 119.977 15.8284 119.461 15.8284C118.961 15.8284 118.436 16.1534 117.886 16.8034C117.352 17.4367 117.086 18.1784 117.086 19.0284C117.086 19.8617 117.427 20.5367 118.111 21.0534C118.794 21.5534 119.611 21.8034 120.561 21.8034ZM153.383 21.0784C153.033 22.1617 152.733 23.4534 152.483 24.9534C152.233 26.4367 152.108 27.4784 152.108 28.0784C152.108 28.6617 152.199 28.9534 152.383 28.9534L153.633 28.6034L154.083 29.8534C153.549 30.27 152.866 30.6534 152.033 31.0034C151.216 31.3367 150.491 31.5034 149.858 31.5034C148.774 31.5034 148.091 31.0367 147.808 30.1034C146.491 31.0367 145.324 31.5034 144.308 31.5034C143.308 31.5034 142.533 31.1367 141.983 30.4034C141.433 29.67 141.158 28.62 141.158 27.2534C141.158 25.37 141.641 23.7117 142.608 22.2784C143.574 20.845 144.849 20.1284 146.433 20.1284C147.299 20.1284 148.183 20.37 149.083 20.8534C149.216 20.5534 149.324 20.3367 149.408 20.2034C150.608 20.2034 151.933 20.495 153.383 21.0784ZM145.858 26.9534C145.858 27.7867 145.916 28.3117 146.033 28.5284C146.149 28.745 146.366 28.8534 146.683 28.8534C146.999 28.8534 147.308 28.7284 147.608 28.4784C147.674 26.545 147.991 24.52 148.558 22.4034C148.308 22.2534 148.016 22.1784 147.683 22.1784C147.366 22.1784 147.074 22.3617 146.808 22.7284C146.558 23.095 146.366 23.5534 146.233 24.1034C145.983 25.1534 145.858 26.1034 145.858 26.9534ZM161.214 29.8034C160.681 30.27 159.981 30.67 159.114 31.0034C158.247 31.3367 157.456 31.5034 156.739 31.5034C156.039 31.5034 155.464 31.3034 155.014 30.9034C154.564 30.4867 154.339 29.895 154.339 29.1284C154.339 28.3617 154.756 26.2284 155.589 22.7284C156.439 19.2117 156.864 16.6034 156.864 14.9034C156.864 14.5367 156.814 14.07 156.714 13.5034C158.281 13.07 159.797 12.8534 161.264 12.8534C161.414 13.12 161.489 13.5534 161.489 14.1534C161.489 15.2867 161.064 17.7617 160.214 21.5784C159.381 25.3784 158.964 27.57 158.964 28.1534C158.964 28.7367 159.064 29.0284 159.264 29.0284C159.431 29.0284 159.789 28.92 160.339 28.7034L160.614 28.5784L161.214 29.8034ZM174.086 21.0784C173.736 22.1617 173.436 23.4534 173.186 24.9534C172.936 26.4367 172.811 27.4784 172.811 28.0784C172.811 28.6617 172.902 28.9534 173.086 28.9534L174.336 28.6034L174.786 29.8534C174.252 30.27 173.569 30.6534 172.736 31.0034C171.919 31.3367 171.194 31.5034 170.561 31.5034C169.477 31.5034 168.794 31.0367 168.511 30.1034C167.194 31.0367 166.027 31.5034 165.011 31.5034C164.011 31.5034 163.236 31.1367 162.686 30.4034C162.136 29.67 161.861 28.62 161.861 27.2534C161.861 25.37 162.344 23.7117 163.311 22.2784C164.277 20.845 165.552 20.1284 167.136 20.1284C168.002 20.1284 168.886 20.37 169.786 20.8534C169.919 20.5534 170.027 20.3367 170.111 20.2034C171.311 20.2034 172.636 20.495 174.086 21.0784ZM166.561 26.9534C166.561 27.7867 166.619 28.3117 166.736 28.5284C166.852 28.745 167.069 28.8534 167.386 28.8534C167.702 28.8534 168.011 28.7284 168.311 28.4784C168.377 26.545 168.694 24.52 169.261 22.4034C169.011 22.2534 168.719 22.1784 168.386 22.1784C168.069 22.1784 167.777 22.3617 167.511 22.7284C167.261 23.095 167.069 23.5534 166.936 24.1034C166.686 25.1534 166.561 26.1034 166.561 26.9534ZM183.324 27.8284C183.324 28.8617 182.841 29.7367 181.874 30.4534C180.924 31.1534 179.807 31.5034 178.524 31.5034C177.241 31.5034 176.182 31.2867 175.349 30.8534C174.532 30.42 174.124 30.0117 174.124 29.6284C174.124 29.2284 174.374 28.7284 174.874 28.1284C175.391 27.5117 175.916 27.1534 176.449 27.0534C177.216 27.47 177.907 28.395 178.524 29.8284C179.007 29.8284 179.249 29.67 179.249 29.3534C179.249 29.12 179.182 28.9034 179.049 28.7034C178.916 28.5034 178.816 28.345 178.749 28.2284C178.682 28.1117 178.566 27.9534 178.399 27.7534C178.232 27.5367 178.107 27.3784 178.024 27.2784C177.607 26.7784 177.232 26.32 176.899 25.9034C176.099 24.9034 175.699 24.0284 175.699 23.2784C175.699 22.5117 175.941 21.8867 176.424 21.4034C177.257 20.5534 178.482 20.1284 180.099 20.1284C181.116 20.1284 181.924 20.3284 182.524 20.7284C183.124 21.1117 183.424 21.695 183.424 22.4784C183.424 23.245 182.966 24.1284 182.049 25.1284C182.899 26.1117 183.324 27.0117 183.324 27.8284ZM181.649 23.2534C181.849 22.9367 181.949 22.6534 181.949 22.4034C181.949 22.1534 181.841 21.9617 181.624 21.8284C181.407 21.695 181.149 21.6284 180.849 21.6284C180.549 21.6284 180.316 21.7034 180.149 21.8534C179.999 21.9867 179.924 22.17 179.924 22.4034C179.924 22.6367 180.282 23.1534 180.999 23.9534C181.232 23.7867 181.449 23.5534 181.649 23.2534ZM190.468 21.8284C190.468 22.5617 190.26 23.7034 189.843 25.2534C189.426 26.7867 189.218 27.7867 189.218 28.2534C189.218 28.72 189.31 28.9534 189.493 28.9534C189.676 28.9534 190.01 28.87 190.493 28.7034L190.718 28.6034L191.168 29.8534C190.601 30.2867 189.893 30.67 189.043 31.0034C188.21 31.3367 187.451 31.5034 186.768 31.5034C186.085 31.5034 185.543 31.3117 185.143 30.9284C184.76 30.545 184.568 29.995 184.568 29.2784C184.568 28.545 184.768 27.4367 185.168 25.9534C185.585 24.4534 185.793 23.5034 185.793 23.1034C185.793 22.4867 185.576 21.9034 185.143 21.3534L184.943 21.0784L185.018 20.6534C185.885 20.3867 187.568 20.2534 190.068 20.2534C190.335 20.5534 190.468 21.0784 190.468 21.8284ZM188.593 18.3034C187.843 18.3034 187.251 18.1034 186.818 17.7034C186.401 17.3034 186.193 16.795 186.193 16.1784C186.193 15.545 186.451 15.02 186.968 14.6034C187.501 14.17 188.143 13.9534 188.893 13.9534C189.643 13.9534 190.226 14.1284 190.643 14.4784C191.06 14.8284 191.268 15.32 191.268 15.9534C191.268 16.5867 191.01 17.1367 190.493 17.6034C189.993 18.07 189.36 18.3034 188.593 18.3034Z" fill="white"/>
<path d="M17.73 18.2407C17.44 18.2407 17.145 18.2957 16.845 18.4057C17.265 18.7657 17.475 19.2107 17.475 19.7407C17.475 20.2607 17.32 20.7307 17.01 21.1507C16.71 21.5707 16.335 21.7807 15.885 21.7807C15.435 21.7807 15.075 21.6407 14.805 21.3607C14.545 21.0807 14.415 20.7107 14.415 20.2507C14.415 19.7907 14.555 19.3607 14.835 18.9607C14.465 19.0607 14.16 19.2957 13.92 19.6657C13.68 20.0257 13.56 20.4807 13.56 21.0307C13.56 21.5807 13.64 22.0457 13.8 22.4257C14.15 22.3757 14.515 22.3507 14.895 22.3507C15.285 22.3507 15.64 22.4507 15.96 22.6507C16.29 22.8407 16.455 23.1107 16.455 23.4607C16.455 23.8107 16.31 24.1107 16.02 24.3607C15.73 24.6007 15.345 24.7207 14.865 24.7207C14.385 24.7207 13.82 24.5307 13.17 24.1507C12.83 24.6007 12.66 25.0607 12.66 25.5307C12.66 25.9907 12.795 26.3507 13.065 26.6107C13.335 26.8707 13.69 27.0007 14.13 27.0007C15.04 27.0007 15.925 26.5307 16.785 25.5907L17.43 26.1307C17.23 26.4507 16.965 26.7707 16.635 27.0907C16.315 27.4107 16.005 27.6707 15.705 27.8707C15.405 28.0707 15.02 28.2457 14.55 28.3957C14.09 28.5457 13.615 28.6207 13.125 28.6207C12.195 28.6207 11.405 28.3907 10.755 27.9307C10.105 27.4607 9.78 26.7407 9.78 25.7707C9.78 25.2007 9.965 24.6857 10.335 24.2257C10.715 23.7557 11.215 23.3657 11.835 23.0557C11.285 22.4257 11.01 21.7207 11.01 20.9407C11.01 19.9507 11.395 19.1807 12.165 18.6307C12.935 18.0707 13.825 17.7907 14.835 17.7907C15.215 17.7907 15.56 17.8357 15.87 17.9257C16.56 17.4657 17.295 17.2357 18.075 17.2357C18.865 17.2357 19.43 17.4407 19.77 17.8507C19.75 18.2007 19.64 18.4907 19.44 18.7207L19.335 18.8407C18.965 18.4407 18.43 18.2407 17.73 18.2407ZM16.29 19.9807C16.29 19.5407 16.14 19.2307 15.84 19.0507C15.55 19.3907 15.405 19.7707 15.405 20.1907C15.405 20.6007 15.54 20.8057 15.81 20.8057C15.95 20.8057 16.065 20.7307 16.155 20.5807C16.245 20.4207 16.29 20.2207 16.29 19.9807ZM14.925 23.1457C14.725 23.1457 14.52 23.1857 14.31 23.2657C14.53 23.5657 14.785 23.7157 15.075 23.7157C15.365 23.7157 15.51 23.6257 15.51 23.4457C15.51 23.2457 15.315 23.1457 14.925 23.1457ZM30.6682 21.2857C30.6682 20.3057 30.2432 19.3907 29.3932 18.5407C29.6132 18.1107 29.8982 17.7207 30.2482 17.3707C30.6082 17.0207 30.9082 16.7807 31.1482 16.6507L31.5082 16.4407C31.9582 16.4407 32.3432 16.7007 32.6632 17.2207C32.9932 17.7307 33.1582 18.3057 33.1582 18.9457C33.1582 20.0757 32.8282 21.4057 32.1682 22.9357C31.5082 24.4557 30.6732 25.7857 29.6632 26.9257C28.6632 28.0557 27.7332 28.6207 26.8732 28.6207C25.7932 28.6207 25.1782 28.1157 25.0282 27.1057C24.6082 27.5757 24.1582 27.9457 23.6782 28.2157C23.1982 28.4857 22.7082 28.6207 22.2082 28.6207C21.7082 28.6207 21.2832 28.4507 20.9332 28.1107C20.5932 27.7607 20.4232 27.2057 20.4232 26.4457C20.4232 25.9157 20.4482 25.1007 20.4982 24.0007C19.5582 23.9507 18.7832 23.6357 18.1732 23.0557C17.5632 22.4757 17.2582 21.8307 17.2582 21.1207C17.2582 20.1807 17.6832 19.3907 18.5332 18.7507C19.3832 18.1107 20.2882 17.7907 21.2482 17.7907C21.9282 17.7907 22.4832 18.0107 22.9132 18.4507C23.3532 18.8807 23.5732 19.5507 23.5732 20.4607C23.5732 21.0307 23.5382 21.8657 23.4682 22.9657C23.3982 24.0657 23.3632 24.9507 23.3632 25.6207C23.3632 26.2907 23.4582 26.6257 23.6482 26.6257C23.7982 26.6257 24.0082 26.5057 24.2782 26.2657C24.5582 26.0157 24.8032 25.7357 25.0132 25.4257C25.0332 25.1357 25.0782 24.6857 25.1482 24.0757C25.2982 22.7657 25.3732 21.6357 25.3732 20.6857C25.3732 19.7357 25.2632 18.9807 25.0432 18.4207C26.2232 18.0307 27.2782 17.8307 28.2082 17.8207C28.3182 18.2107 28.3732 18.8357 28.3732 19.6957C28.3732 20.5457 28.2982 21.6507 28.1482 23.0107C27.9982 24.3707 27.9232 25.3207 27.9232 25.8607C27.9232 26.3907 27.9982 26.6557 28.1482 26.6557C28.2982 26.6557 28.4982 26.4957 28.7482 26.1757C29.0082 25.8457 29.2682 25.4357 29.5282 24.9457C29.7882 24.4457 30.0282 23.8657 30.2482 23.2057C30.4682 22.5357 30.6082 21.8957 30.6682 21.2857ZM20.5582 22.8007C20.6082 22.3007 20.6332 21.7707 20.6332 21.2107C20.6332 20.6407 20.5882 20.1657 20.4982 19.7857C20.4082 19.4057 20.2082 19.2157 19.8982 19.2157C19.5982 19.2157 19.2832 19.4107 18.9532 19.8007C18.6332 20.1807 18.4732 20.6257 18.4732 21.1357C18.4732 21.6357 18.6782 22.0407 19.0882 22.3507C19.4982 22.6507 19.9882 22.8007 20.5582 22.8007Z" fill="black"/>
</svg>
