<svg width="53" height="53" viewBox="0 0 53 53" fill="none" xmlns="http://www.w3.org/2000/svg">
<g clip-path="url(#clip0_21_70)">
<path d="M49 29.3566C49 16.4552 38.9256 5.99719 26.5 5.99719C14.0688 6.00009 3.99438 16.4552 3.99438 29.3595C3.99438 41.0159 12.2238 50.6789 22.9788 52.4316V36.109H17.2694V29.3595H22.9844V24.2088C22.9844 18.3559 26.3453 15.1233 31.4838 15.1233C33.9475 15.1233 36.5209 15.5789 36.5209 15.5789V21.3244H33.6831C30.8903 21.3244 30.0184 23.1264 30.0184 24.9749V29.3566H36.2566L35.2609 36.1061H30.0156V52.4287C40.7706 50.676 49 41.013 49 29.3566Z" fill="#011627"/>
</g>
<defs>
<clipPath id="clip0_21_70">
<rect width="45" height="46.4286" fill="white" transform="translate(4 6)"/>
</clipPath>
</defs>
</svg>
