<svg width="47" height="46" viewBox="0 0 47 46" fill="none" xmlns="http://www.w3.org/2000/svg">
<path d="M23.5 0C10.5162 0 0 10.2826 0 22.9778C0 33.1454 6.72687 41.7334 16.0681 44.7779C17.2431 44.979 17.6837 44.2897 17.6837 43.6865C17.6837 43.1408 17.6544 41.3313 17.6544 39.4069C11.75 40.4696 10.2225 37.9995 9.7525 36.707C9.48812 36.0464 8.3425 34.0071 7.34375 33.4614C6.52125 33.0305 5.34625 31.9678 7.31438 31.9391C9.165 31.9104 10.4869 33.605 10.9275 34.2943C13.0425 37.7697 16.4206 36.7932 17.7719 36.19C17.9775 34.6964 18.5944 33.6912 19.27 33.1167C14.0412 32.5423 8.5775 30.5604 8.5775 21.7714C8.5775 19.2726 9.48813 17.2046 10.9863 15.5962C10.7513 15.0217 9.92875 12.6665 11.2212 9.50705C11.2212 9.50705 13.1894 8.90389 17.6837 11.8623C19.5637 11.3453 21.5613 11.0868 23.5588 11.0868C25.5563 11.0868 27.5538 11.3453 29.4338 11.8623C33.9281 8.87517 35.8963 9.50705 35.8963 9.50705C37.1888 12.6665 36.3663 15.0217 36.1313 15.5962C37.6294 17.2046 38.54 19.2439 38.54 21.7714C38.54 30.5892 33.0469 32.5423 27.8181 33.1167C28.67 33.8348 29.4044 35.2134 29.4044 37.3676C29.4044 40.4409 29.375 42.911 29.375 43.6865C29.375 44.2897 29.8156 45.0077 30.9906 44.7779C35.656 43.2384 39.7101 40.3069 42.5821 36.3961C45.454 32.4853 46.9992 27.7923 47 22.9778C47 10.2826 36.4838 0 23.5 0Z" fill="#011627"/>
</svg>
