<svg width="38" height="38" viewBox="0 0 38 38" fill="none" xmlns="http://www.w3.org/2000/svg">
<path d="M37.3958 11.0917C37.3748 9.5138 37.0794 7.95162 36.5229 6.475C36.0403 5.22948 35.3032 4.09833 34.3587 3.15381C33.4142 2.2093 32.283 1.47219 31.0375 0.989584C29.5799 0.442411 28.04 0.146544 26.4833 0.114583C24.4792 0.0250001 23.8438 0 18.7563 0C13.6688 0 13.0167 1.39698e-07 11.0271 0.114583C9.47117 0.146779 7.93198 0.442642 6.475 0.989584C5.22929 1.47185 4.09796 2.20884 3.1534 3.1534C2.20884 4.09796 1.47185 5.22929 0.989583 6.475C0.441315 7.93153 0.14609 9.47106 0.116667 11.0271C0.0270833 13.0333 0 13.6688 0 18.7562C0 23.8437 -1.5522e-08 24.4937 0.116667 26.4854C0.147917 28.0437 0.441666 29.5813 0.989583 31.0417C1.47266 32.287 2.2102 33.4179 3.15508 34.362C4.09995 35.3062 5.23138 36.0429 6.47708 36.525C7.93007 37.0942 9.46953 37.4112 11.0292 37.4625C13.0354 37.5521 13.6708 37.5792 18.7583 37.5792C23.8458 37.5792 24.4979 37.5792 26.4875 37.4625C28.0441 37.4318 29.5841 37.1367 31.0417 36.5896C32.2869 36.1064 33.4177 35.3691 34.3622 34.4247C35.3066 33.4802 36.0439 32.3494 36.5271 31.1042C37.075 29.6458 37.3688 28.1083 37.4 26.5479C37.4896 24.5437 37.5167 23.9083 37.5167 18.8187C37.5125 13.7312 37.5125 13.0854 37.3958 11.0917V11.0917ZM18.7438 28.3771C13.4229 28.3771 9.1125 24.0667 9.1125 18.7458C9.1125 13.425 13.4229 9.11458 18.7438 9.11458C21.2981 9.11458 23.7479 10.1293 25.5541 11.9355C27.3603 13.7417 28.375 16.1915 28.375 18.7458C28.375 21.3002 27.3603 23.7499 25.5541 25.5562C23.7479 27.3624 21.2981 28.3771 18.7438 28.3771V28.3771ZM28.7583 11.0042C28.4633 11.0044 28.1712 10.9465 27.8986 10.8338C27.626 10.721 27.3783 10.5556 27.1697 10.347C26.9611 10.1384 26.7957 9.8907 26.6829 9.6181C26.5701 9.3455 26.5122 9.05334 26.5125 8.75833C26.5125 8.46354 26.5706 8.17164 26.6834 7.89929C26.7962 7.62694 26.9615 7.37947 27.17 7.17103C27.3784 6.96258 27.6259 6.79723 27.8983 6.68442C28.1706 6.5716 28.4625 6.51354 28.7573 6.51354C29.0521 6.51354 29.344 6.5716 29.6163 6.68442C29.8887 6.79723 30.1362 6.96258 30.3446 7.17103C30.5531 7.37947 30.7184 7.62694 30.8312 7.89929C30.944 8.17164 31.0021 8.46354 31.0021 8.75833C31.0021 10 29.9979 11.0042 28.7583 11.0042Z" fill="#011627"/>
<path d="M18.7438 25.0021C22.199 25.0021 25 22.2011 25 18.7458C25 15.2906 22.199 12.4896 18.7438 12.4896C15.2886 12.4896 12.4875 15.2906 12.4875 18.7458C12.4875 22.2011 15.2886 25.0021 18.7438 25.0021Z" fill="#011627"/>
</svg>
