<svg width="44" height="38" viewBox="0 0 44 38" fill="none" xmlns="http://www.w3.org/2000/svg">
<path d="M44 19C44 24.0391 41.6822 28.8718 37.5564 32.435C33.4306 35.9982 27.8348 38 22 38C16.1652 38 10.5695 35.9982 6.44365 32.435C2.31785 28.8718 0 24.0391 0 19C0 13.9609 2.31785 9.12816 6.44365 5.56497C10.5695 2.00178 16.1652 0 22 0C27.8348 0 33.4306 2.00178 37.5564 5.56497C41.6822 9.12816 44 13.9609 44 19ZM22.7892 14.0268C20.6497 14.7963 16.3708 16.3875 9.95775 18.8005C8.91825 19.1567 8.371 19.5083 8.3215 19.8503C8.239 20.4274 9.07775 20.6554 10.219 20.9665L10.7002 21.0971C11.8222 21.413 13.3347 21.7811 14.1185 21.7954C14.8335 21.8096 15.6282 21.5579 16.5055 21.0354C22.4977 17.5418 25.5915 15.7771 25.784 15.7391C25.9215 15.7106 26.114 15.6774 26.2405 15.7771C26.3697 15.8745 26.356 16.0621 26.3423 16.112C26.2598 16.4184 22.968 19.0594 21.2657 20.4274C20.735 20.8549 20.3582 21.1565 20.2812 21.2254C20.1117 21.375 19.9393 21.5223 19.7642 21.6671C18.7192 22.5364 17.9382 23.1871 19.8055 24.2511C20.7048 24.7641 21.4252 25.1845 22.143 25.6072C22.924 26.068 23.705 26.5264 24.717 27.1011C24.9727 27.2436 25.2203 27.398 25.4595 27.5452C26.3698 28.1057 27.192 28.6092 28.2013 28.5285C28.7898 28.481 29.3975 28.006 29.7055 26.581C30.4342 23.2156 31.867 15.9267 32.197 12.9224C32.2171 12.6726 32.2051 12.4217 32.1612 12.1742C32.1354 11.9746 32.0235 11.7906 31.8478 11.6589C31.5975 11.5097 31.2992 11.4324 30.9953 11.438C30.1703 11.4499 28.897 11.8323 22.7892 14.0268Z" fill="#011627"/>
</svg>
