<svg width="50" height="50" viewBox="0 0 50 50" fill="none" xmlns="http://www.w3.org/2000/svg">
<path d="M43.75 7H5.65625C4.74014 7 4 7.74014 4 8.65625V46.75C4 47.6661 4.74014 48.4062 5.65625 48.4062H43.75C44.6661 48.4062 45.4062 47.6661 45.4062 46.75V8.65625C45.4062 7.74014 44.6661 7 43.75 7ZM35.8466 21.9942C35.8621 22.2375 35.8621 22.4911 35.8621 22.7396C35.8621 30.3376 30.0756 39.0898 19.5015 39.0898C16.2407 39.0898 13.2181 38.1427 10.6716 36.5123C11.1374 36.5641 11.5825 36.5848 12.0587 36.5848C14.7501 36.5848 17.2241 35.6738 19.1961 34.1314C16.6703 34.0797 14.5482 32.4234 13.8236 30.1461C14.7087 30.2755 15.5058 30.2755 16.4167 30.0426C15.1162 29.7784 13.9472 29.072 13.1084 28.0436C12.2696 27.0152 11.8128 25.7281 11.8154 24.401V24.3285C12.5763 24.7581 13.4717 25.0221 14.4085 25.0583C13.621 24.5334 12.9751 23.8224 12.5282 22.9881C12.0813 22.1539 11.8471 21.2223 11.8465 20.2759C11.8465 19.2045 12.126 18.2263 12.628 17.3774C14.0716 19.1545 15.8729 20.6079 17.9149 21.6431C19.9569 22.6784 22.1939 23.2724 24.4806 23.3865C23.668 19.4788 26.5871 16.3164 30.0963 16.3164C31.7525 16.3164 33.2432 17.01 34.2938 18.1279C35.593 17.8847 36.8352 17.3981 37.9428 16.746C37.5132 18.0762 36.6126 19.1993 35.417 19.9084C36.5764 19.7842 37.6943 19.4633 38.7295 19.013C37.9479 20.162 36.9697 21.1816 35.8466 21.9942Z" fill="#011627"/>
</svg>
