<svg width="45" height="52" viewBox="0 0 45 52" fill="none" xmlns="http://www.w3.org/2000/svg">
<g clip-path="url(#clip0_21_66)">
<path d="M22.5 15.1579C15.1975 15.1579 9.26116 21.1186 9.25112 28.451C9.25112 30.9623 9.95424 33.4132 11.2801 35.5211L11.5915 36.0254L10.2556 40.9271L15.2679 39.6059L15.75 39.8984C17.779 41.1087 20.1094 41.7542 22.49 41.7542H22.5C29.7924 41.7542 35.8895 35.7935 35.8895 28.4611C35.8895 24.9109 34.3627 21.5725 31.8616 19.0611C29.3504 16.5396 26.0357 15.1579 22.5 15.1579ZM30.2846 34.1595C29.9531 35.0975 28.3661 35.9447 27.6027 36.0557C26.3371 36.2473 25.3527 36.1465 22.8315 35.0572C18.8437 33.3224 16.2321 29.2881 16.0312 29.0259C15.8304 28.7636 14.404 26.8574 14.404 24.8907C14.404 22.924 15.4286 21.9557 15.8002 21.5523C16.1618 21.1489 16.5937 21.048 16.865 21.048C17.1261 21.048 17.3973 21.048 17.6283 21.0581C17.8694 21.0682 18.2009 20.9673 18.5223 21.7439C18.8538 22.5407 19.6473 24.5074 19.7478 24.7091C19.8482 24.9109 19.9185 25.1428 19.7779 25.4051C19.0145 26.9381 18.2009 26.8776 18.6127 27.5836C20.1496 30.2362 21.6864 31.154 24.0268 32.334C24.4286 32.5357 24.6596 32.5055 24.8906 32.2332C25.1217 31.9709 25.885 31.0632 26.1462 30.6699C26.4074 30.2664 26.6786 30.337 27.0402 30.4681C27.4018 30.5993 29.3605 31.5675 29.7623 31.7692C30.1641 31.9709 30.4252 32.0718 30.5257 32.2332C30.6161 32.4248 30.6161 33.2317 30.2846 34.1595ZM40.1786 5.99997H4.82143C2.1596 5.99997 0 8.16842 0 10.8412V46.3432C0 49.0159 2.1596 51.1844 4.82143 51.1844H40.1786C42.8404 51.1844 45 49.0159 45 46.3432V10.8412C45 8.16842 42.8404 5.99997 40.1786 5.99997ZM22.49 44.4471C19.8181 44.4471 17.1964 43.7713 14.8761 42.5005L6.42857 44.7295L8.68862 36.4389C7.29241 34.0183 6.55915 31.2649 6.55915 28.4409C6.5692 19.6259 13.7109 12.4549 22.49 12.4549C26.7489 12.4549 30.7467 14.119 33.76 17.1448C36.7634 20.1705 38.5714 24.1847 38.5714 28.4611C38.5714 37.2761 31.269 44.4471 22.49 44.4471Z" fill="#011627"/>
</g>
<defs>
<clipPath id="clip0_21_66">
<rect width="45" height="51.6393" fill="white"/>
</clipPath>
</defs>
</svg>
