<svg width="47" height="34" viewBox="0 0 47 34" fill="none" xmlns="http://www.w3.org/2000/svg">
<path d="M23.6513 0H23.9127C26.3275 0.00881305 38.563 0.0969441 41.862 0.984125C42.8593 1.25489 43.7681 1.78265 44.4976 2.51468C45.227 3.24671 45.7516 4.15736 46.0188 5.15563C46.3155 6.27195 46.5241 7.74961 46.6651 9.27427L46.6945 9.57979L46.7591 10.3436L46.7826 10.6491C46.9736 13.3341 46.9971 15.8488 47 16.3981V16.6185C46.9971 17.1884 46.9706 19.8734 46.7591 22.6701L46.7356 22.9786L46.7092 23.2841C46.5623 24.9644 46.3449 26.633 46.0188 27.861C45.7524 28.8597 45.2281 29.7708 44.4985 30.5029C43.7689 31.2351 42.8597 31.7626 41.862 32.0325C38.4543 32.9491 25.502 33.0137 23.7071 33.0166H23.29C22.3822 33.0166 18.6279 32.999 14.6914 32.8639L14.1919 32.8462L13.9364 32.8345L13.434 32.8139L12.9317 32.7934C9.67085 32.6494 6.56572 32.4173 5.13507 32.0296C4.1377 31.7599 3.22871 31.2328 2.49916 30.5012C1.76961 29.7696 1.24513 28.8591 0.978249 27.861C0.652166 26.636 0.434777 24.9644 0.287893 23.2841L0.264392 22.9756L0.24089 22.6701C0.0959083 20.6795 0.0155693 18.6848 0 16.689L0 16.3276C0.00587537 15.696 0.0293768 13.5133 0.188012 11.1044L0.208576 10.8019L0.217389 10.6491L0.24089 10.3436L0.305519 9.57979L0.334896 9.27427C0.475905 7.74961 0.68448 6.26902 0.981186 5.15563C1.24762 4.15696 1.7719 3.24588 2.50148 2.51372C3.23105 1.78157 4.14028 1.25407 5.13801 0.984125C6.56866 0.602226 9.67379 0.36721 12.9346 0.220326L13.434 0.199762L13.9393 0.182137L14.1919 0.173324L14.6943 0.15276C17.4901 0.0627922 20.2871 0.0128461 23.0843 0.00293782H23.6513V0ZM18.8012 9.42997V23.5837L31.0131 16.5098L18.8012 9.42997Z" fill="#011627"/>
</svg>
